# xmcd
#
# Track frame offsets:
#	150
#	18009
#	35036
#	52911
#	71342
#	95656
#	113746
#	133462
#	150184
#	169236
#
# Disc length: 2569 seconds
#
# Revision: 1
# Processed by: cddbd v1.5.2PL0 Copyright (c) Steve Scherf et al.
# Submitted via: audiograbber 1.83.01
#
DISCID=7b0a070a
DTITLE=The Electric Flag - The Band Kept Playing
DYEAR=1900
DGENRE=Blues
TTITLE0=Sweet Soul Music
TTITLE1=Every Now And Then
TTITLE2=Sudden Change
TTITLE3=Earthquake Country
TTITLE4=Doctor Oh Doctor(Massive Infusion)
TTITLE5=Lonely Song
TTITLE6=Make Your Move
TTITLE7=Inside Information
TTITLE8=Talkin' Won't Get It
TTITLE9=The Band Kept Playing
EXTD=
EXTT0=
EXTT1=
EXTT2=
EXTT3=
EXTT4=
EXTT5=
EXTT6=
EXTT7=
EXTT8=
EXTT9=
PLAYORDER=
